<svg xmlns="http://www.w3.org/2000/svg" xmlns:svg="http://www.w3.org/2000/svg" xmlns:xlink="http://www.w3.org/1999/xlink" version="1.0" height="730pt" width="1090pt" viewBox="265 17 1098 736" ><defs><style type="text/css">
            @font-face {
                font-family: 'lt_regular';
                src: url('https://app.creately.com/diagram/assets/fonts/lato/lt-regular-webfont.woff2') format('woff2'),
                    url('https://app.creately.com/diagram/assets/fonts/lato/lt-regular-webfont.woff') format('woff');
                font-weight: normal;
                font-style: normal;
            }
            @font-face {
                font-family: 'noto_regular';
                src: url('https://app.creately.com/diagram/assets/fonts/noto/noto-regular.woff') format('woff'),
                     url('https://app.creately.com/diagram/assets/fonts/noto/noto-regular.woff2') format('woff2');
                font-weight: normal;
                font-style: normal;
            }
        p {
            margin: 0;
        }
        </style></defs><defs><style>
            span{ display: inline-block; }
        </style></defs><g id="NJ96AnErBIY"><g transform="translate(450 200)"><rect x="0" y="0" width="99.99999999999994" height="49.99999999999997" fill="rgb(52,64,87)" stroke="#344057" stroke-width="2" stroke-linecap="round" stroke-linejoin="round" stroke-dasharray="0 0"/></g><g transform="translate(475.715, 215.8) rotate(0, 24.285, 9.2)" width="48.57" height="18.4"><text text-decoration="none" x="0.28500000000000014" fill="#ffffff" font-size="10pt" font-family="lt_regular"  y="17">Exercise</text><text text-decoration="none" x="48.285" fill="#4b4b4b" font-size="10pt" font-family="noto_regular"  y="17"></text></g></g><g id="ReY6cD2VN78"><g transform="translate(1050 200)"><rect x="0" y="0" width="99.99999999999994" height="49.99999999999997" fill="rgb(52,64,87)" stroke="#344057" stroke-width="2" stroke-linecap="round" stroke-linejoin="round" stroke-dasharray="0 0"/></g><g transform="translate(1082.62, 215.8) rotate(0, 17.38, 9.2)" width="34.76" height="18.4"><text text-decoration="none" x="0" fill="#ffffff" font-size="10pt" font-family="lt_regular"  y="17">Entity</text><text text-decoration="none" x="35" fill="#4b4b4b" font-size="10pt" font-family="noto_regular"  y="17"></text></g></g><g id="n4Yxz3ZekgX"><g transform="translate(730 190)"><path d="M 119.99999999999993,34.99999999999998 L 59.999999999999964,69.99999999999996 L 0,34.99999999999998 L 59.999999999999964,0 L 119.99999999999993,34.99999999999998 L 119.99999999999993,34.99999999999998 Z" fill="rgb(209,83,77)" stroke="#d1534d" stroke-width="2" stroke-linecap="round" stroke-linejoin="round" stroke-dasharray="0 0"/></g><g transform="translate(750.785, 206.59999999999997) rotate(0, 39.215, 18.4)" width="78.43" height="36.8"><text text-decoration="none" x="1.2150000000000034" fill="#ffffff" font-size="10pt" font-family="lt_regular"  y="14">Exercises&#160;</text><text text-decoration="none" x="58.215" fill="#ffffff" font-size="10pt" font-family="lt_regular"  y="14">in&#160;</text><text text-decoration="none" x="71.215" fill="#ffffff" font-size="10pt" font-family="lt_regular"  y="14">a&#160;</text><text text-decoration="none" x="27.715000000000003" fill="#ffffff" font-size="10pt" font-family="lt_regular"  y="36">plan</text><text text-decoration="none" x="50.715" fill="#4b4b4b" font-size="10pt" font-family="noto_regular"  y="36"></text></g></g><g id="gbWFsLSn6Bv"><g transform="translate(1040 350.00000000000006)"><path d="M 119.99999999999991,34.99999999999998 L 59.99999999999996,69.99999999999996 L 0,34.99999999999998 L 59.99999999999996,0 L 119.99999999999991,34.99999999999998 L 119.99999999999991,34.99999999999998 Z" fill="rgb(209,83,77)" stroke="#d1534d" stroke-width="2" stroke-linecap="round" stroke-linejoin="round" stroke-dasharray="0 0"/></g><g transform="translate(1061.26, 366.6) rotate(0, 38.74, 18.4)" width="77.48" height="36.8"><text text-decoration="none" x="18.740000000000002" fill="#ffffff" font-size="10pt" font-family="lt_regular"  y="14">User&#x27;s&#160;</text><text text-decoration="none" x="58.74" fill="#ffffff" font-size="10pt" font-family="lt_regular"  y="14"></text><text text-decoration="none" x="1.740000000000002" fill="#ffffff" font-size="10pt" font-family="lt_regular"  y="36">workout&#160;</text><text text-decoration="none" x="52.74" fill="#ffffff" font-size="10pt" font-family="lt_regular"  y="36">plan</text><text text-decoration="none" x="75.74000000000001" fill="#4b4b4b" font-size="10pt" font-family="noto_regular"  y="36"></text></g></g><g id="Vuo4xwkpcys"><g transform="translate(1050 550)"><rect x="0" y="0" width="99.99999999999994" height="49.99999999999997" fill="rgb(52,64,87)" stroke="#344057" stroke-width="2" stroke-linecap="round" stroke-linejoin="round" stroke-dasharray="0 0"/></g><g transform="translate(1086.27, 565.8) rotate(0, 13.73, 9.2)" width="27.46" height="18.4"><text text-decoration="none" x="0" fill="#ffffff" font-size="10pt" font-family="lt_regular"  y="17">User</text><text text-decoration="none" x="28" fill="#4b4b4b" font-size="10pt" font-family="noto_regular"  y="17"></text></g></g><g id="hgMH2DzpnRu"><g transform="translate(730 540)"><path d="M 119.99999999999993,34.99999999999998 L 59.999999999999964,69.99999999999996 L 0,34.99999999999998 L 59.999999999999964,0 L 119.99999999999993,34.99999999999998 L 119.99999999999993,34.99999999999998 Z" fill="rgb(209,83,77)" stroke="#d1534d" stroke-width="2" stroke-linecap="round" stroke-linejoin="round" stroke-dasharray="0 0"/></g><g transform="translate(746.86, 556.6) rotate(0, 43.14, 18.4)" width="86.28" height="36.8"><text text-decoration="none" x="0.14000000000000057" fill="#ffffff" font-size="10pt" font-family="lt_regular"  y="14">User&#x27;s&#160;</text><text text-decoration="none" x="40.14" fill="#ffffff" font-size="10pt" font-family="lt_regular"  y="14">tracking&#160;</text><text text-decoration="none" x="24.64" fill="#ffffff" font-size="10pt" font-family="lt_regular"  y="36">details</text><text text-decoration="none" x="61.64" fill="#4b4b4b" font-size="10pt" font-family="noto_regular"  y="36"></text></g></g><g id="c6xHftXbsRB"><g transform="translate(450 550)"><rect x="0" y="0" width="99.99999999999994" height="49.99999999999997" fill="rgb(52,64,87)" stroke="#344057" stroke-width="2" stroke-linecap="round" stroke-linejoin="round" stroke-dasharray="0 0"/></g><g transform="translate(474.99, 565.8) rotate(0, 25.01, 9.2)" width="50.02" height="18.4"><text text-decoration="none" x="0.5100000000000016" fill="#ffffff" font-size="10pt" font-family="lt_regular"  y="17">Tracking</text><text text-decoration="none" x="49.510000000000005" fill="#4b4b4b" font-size="10pt" font-family="noto_regular"  y="17"></text></g></g><g id="aEQd0NlM5Et"><g transform="translate(590 140)"><ellipse cx="49.99999999999997" cy="24.999999999999986" rx="49.99999999999997" ry="24.999999999999986" fill="rgb(52,161,108)" stroke="#34a16c" stroke-width="2" stroke-linecap="round" stroke-linejoin="round" stroke-dasharray="0 0"/></g><g transform="translate(608.785, 155.8) rotate(0, 31.215, 9.2)" width="62.43" height="18.4"><text text-decoration="underline" x="0.21499999999999986" fill="#ffffff" font-size="10pt" font-family="lt_regular"  y="17">ExerciseID</text><text text-decoration="none" x="62.215" fill="#4b4b4b" font-size="10pt" font-family="noto_regular"  y="17"></text></g></g><g id="MdLjLdc0dcH"><g transform="translate(550 80)"><ellipse cx="50" cy="25" rx="50" ry="25" fill="rgb(97,159,67)" stroke="#619f43" stroke-width="2" stroke-linecap="round" stroke-linejoin="round" stroke-dasharray="0 0"/></g><g transform="translate(575.715, 86.6) rotate(0, 24.285, 18.4)" width="48.57" height="36.8"><text text-decoration="none" x="0.28500000000000014" fill="#ffffff" font-size="10pt" font-family="lt_regular"  y="14">Exercise&#160;</text><text text-decoration="none" x="2.285" fill="#ffffff" font-size="10pt" font-family="lt_regular"  y="36">number</text><text text-decoration="none" x="46.285" fill="#4b4b4b" font-size="10pt" font-family="noto_regular"  y="36"></text></g></g><g id="lQnYrORWrrF"><g transform="translate(460 40)"><ellipse cx="49.99999999999997" cy="24.999999999999986" rx="49.99999999999997" ry="24.999999999999986" fill="rgb(97,159,67)" stroke="#619f43" stroke-width="2" stroke-linecap="round" stroke-linejoin="round" stroke-dasharray="0 0"/></g><g transform="translate(492.605, 55.79999999999998) rotate(0, 17.395, 9.2)" width="34.79" height="18.4"><text text-decoration="none" x="0.3949999999999996" fill="#ffffff" font-size="10pt" font-family="lt_regular"  y="17">Name</text><text text-decoration="none" x="34.394999999999996" fill="#4b4b4b" font-size="10pt" font-family="noto_regular"  y="17"></text></g></g><g id="Qgkq0V9OVG3"><g transform="translate(350 59.99999999999999)"><ellipse cx="49.99999999999997" cy="24.999999999999986" rx="49.99999999999997" ry="24.999999999999986" fill="rgb(97,159,67)" stroke="#619f43" stroke-width="2" stroke-linecap="round" stroke-linejoin="round" stroke-dasharray="0 0"/></g><g transform="translate(378.415, 75.79999999999998) rotate(0, 21.585, 9.2)" width="43.17" height="18.4"><text text-decoration="none" x="0.5850000000000009" fill="#ffffff" font-size="10pt" font-family="lt_regular"  y="17">Weight</text><text text-decoration="none" x="42.585" fill="#4b4b4b" font-size="10pt" font-family="noto_regular"  y="17"></text></g></g><g id="JMaRhigcw6i"><g transform="translate(300 119.99999999999999)"><ellipse cx="49.99999999999997" cy="24.999999999999986" rx="49.99999999999997" ry="24.999999999999986" fill="rgb(97,159,67)" stroke="#619f43" stroke-width="2" stroke-linecap="round" stroke-linejoin="round" stroke-dasharray="0 0"/></g><g transform="translate(316.705, 135.79999999999998) rotate(0, 33.295, 9.2)" width="66.59" height="18.4"><text text-decoration="none" x="0.7950000000000017" fill="#ffffff" font-size="10pt" font-family="lt_regular"  y="17">Repetitions</text><text text-decoration="none" x="65.795" fill="#4b4b4b" font-size="10pt" font-family="noto_regular"  y="17"></text></g></g><g id="9Cje0Dcqke9"><g transform="translate(290 180)"><ellipse cx="50" cy="25" rx="50" ry="25" fill="rgb(97,159,67)" stroke="#619f43" stroke-width="2" stroke-linecap="round" stroke-linejoin="round" stroke-dasharray="0 0"/></g><g transform="translate(325.015, 195.8) rotate(0, 14.985, 9.2)" width="29.97" height="18.4"><text text-decoration="none" x="0.48499999999999943" fill="#ffffff" font-size="10pt" font-family="lt_regular"  y="17">Total</text><text text-decoration="none" x="29.485" fill="#4b4b4b" font-size="10pt" font-family="noto_regular"  y="17"></text></g></g><g id="fR5vOkz7KQI"><g transform="translate(300 249.99999999999997)"><ellipse cx="49.99999999999997" cy="24.999999999999986" rx="49.99999999999997" ry="24.999999999999986" fill="rgb(97,159,67)" stroke="#619f43" stroke-width="2" stroke-linecap="round" stroke-linejoin="round" stroke-dasharray="0 0"/></g><g transform="translate(327.09, 256.59999999999997) rotate(0, 22.91, 18.4)" width="45.82" height="36.8"><text text-decoration="none" x="0.41000000000000014" fill="#ffffff" font-size="10pt" font-family="lt_regular"  y="14">Starting&#160;</text><text text-decoration="none" x="3.41" fill="#ffffff" font-size="10pt" font-family="lt_regular"  y="36">weight</text><text text-decoration="none" x="42.41" fill="#4b4b4b" font-size="10pt" font-family="noto_regular"  y="36"></text></g></g><g id="g37hfr8DcST"><g transform="translate(359.9999999999999 320)"><ellipse cx="49.99999999999997" cy="24.999999999999986" rx="49.99999999999997" ry="24.999999999999986" fill="rgb(97,159,67)" stroke="#619f43" stroke-width="2" stroke-linecap="round" stroke-linejoin="round" stroke-dasharray="0 0"/></g><g transform="translate(378.45499999999987, 326.6) rotate(0, 31.545, 18.4)" width="63.09" height="36.8"><text text-decoration="none" x="9.045000000000002" fill="#ffffff" font-size="10pt" font-family="lt_regular"  y="14">Starting&#160;</text><text text-decoration="none" x="0.5450000000000017" fill="#ffffff" font-size="10pt" font-family="lt_regular"  y="36">repetitions</text><text text-decoration="none" x="62.545" fill="#4b4b4b" font-size="10pt" font-family="noto_regular"  y="36"></text></g></g><g id="CbohvxinoT6"><g transform="translate(479.99999999999983 339.99999999999983)"><ellipse cx="49.999999999999964" cy="24.999999999999982" rx="49.999999999999964" ry="24.999999999999982" fill="rgb(97,159,67)" stroke="#619f43" stroke-width="2" stroke-linecap="round" stroke-linejoin="round" stroke-dasharray="0 0"/></g><g transform="translate(501.76499999999976, 355.7999999999998) rotate(0, 28.235, 9.2)" width="56.47" height="18.4"><text text-decoration="none" x="1.2349999999999994" fill="#ffffff" font-size="10pt" font-family="lt_regular"  y="17">body&#160;</text><text text-decoration="none" x="32.235" fill="#ffffff" font-size="10pt" font-family="lt_regular"  y="17">part</text><text text-decoration="none" x="55.235" fill="#4b4b4b" font-size="10pt" font-family="noto_regular"  y="17"></text></g></g><g id="dcK7Wka0GHK"><g transform="translate(590 300)"><ellipse cx="49.99999999999997" cy="24.999999999999986" rx="49.99999999999997" ry="24.999999999999986" fill="rgb(97,159,67)" stroke="#619f43" stroke-width="2" stroke-linecap="round" stroke-linejoin="round" stroke-dasharray="0 0"/></g><g transform="translate(627.59, 315.8) rotate(0, 12.41, 9.2)" width="24.82" height="18.4"><text text-decoration="none" x="0" fill="#ffffff" font-size="10pt" font-family="lt_regular"  y="17">Sets</text><text text-decoration="none" x="25" fill="#4b4b4b" font-size="10pt" font-family="noto_regular"  y="17"></text></g></g><g id="2PIL8jZAgde"><g><path d="M 590,165 L 500,200" fill="none" stroke="#9A9A9A" stroke-width="2" stroke-linecap="round" stroke-linejoin="round"/></g></g><g id="v5EvmuBaIaR"><g><path d="M 510,90 L 505,145 L 500,200" fill="none" stroke="#9A9A9A" stroke-width="2" stroke-linecap="round" stroke-linejoin="round"/></g></g><g id="39BjqGVw6OG"><g><path d="M 560,120 L 500,200" fill="none" stroke="#9A9A9A" stroke-width="2" stroke-linecap="round" stroke-linejoin="round"/></g></g><g id="5DkSFvtU5h8"><g><path d="M 400,145 L 500,200" fill="none" stroke="#9A9A9A" stroke-width="2" stroke-linecap="round" stroke-linejoin="round"/></g></g><g id="mofeJUbfgHG"><g><path d="M 390,205 L 420,215 L 450,225" fill="none" stroke="#9A9A9A" stroke-width="2" stroke-linecap="round" stroke-linejoin="round"/></g></g><g id="FgXy3s1dT4j"><g><path d="M 390,260 L 420,242 L 450,225" fill="none" stroke="#9A9A9A" stroke-width="2" stroke-linecap="round" stroke-linejoin="round"/></g></g><g id="0LxtDUMhilV"><g><path d="M 420,108 L 460,154 L 500,200" fill="none" stroke="#9A9A9A" stroke-width="2" stroke-linecap="round" stroke-linejoin="round"/></g></g><g id="o2pfO5eZMJB"><g><path d="M 430,322 L 500,250" fill="none" stroke="#9A9A9A" stroke-width="2" stroke-linecap="round" stroke-linejoin="round"/></g></g><g id="uqySb2PbiOM"><g><path d="M 600,310 L 500,250" fill="none" stroke="#9A9A9A" stroke-width="2" stroke-linecap="round" stroke-linejoin="round"/></g></g><g id="hy1y6McpTZC"><mask id="26765" x="536" y="211" width="208" height="28" maskUnits="userSpaceOnUse"><rect x="536" y="211" width="208" height="28" fill="white" />undefined</mask><g mask="url(#26765)"><path d="M 550,225 L 640,225 Q 650,224.99999999999997 650,224.99999999999997 L 730,225" fill="none" stroke="#9A9A9A" stroke-width="2" stroke-linecap="round" stroke-linejoin="round"/></g>undefined</g><g id="00qvaRb7MLu"><g><path d="M 530,340 L 500,250" fill="none" stroke="#9A9A9A" stroke-width="2" stroke-linecap="round" stroke-linejoin="round"/></g></g><g id="hqCWjYmvC0h"><g transform="translate(560 190)"><rect x="0" y="0" width="249.99999999999986" height="99.99999999999994" fill="rgba(255,255,255,0.01)" stroke="rgba(255,255,255,0.01)"/></g><g transform="translate(570, 200) rotate(0, 0, 0)" width="12.38" height="18.4"><text text-decoration="none" x="0" fill="#4b4b4b" font-size="10pt" font-family="lt_regular"  y="17">M</text><text text-decoration="none" x="12" fill="#4b4b4b" font-size="10pt" font-family="noto_regular"  y="17"></text></g></g><g id="GxfaNwWAncs"><mask id="7078d" x="836" y="211" width="228" height="28" maskUnits="userSpaceOnUse"><rect x="836" y="211" width="228" height="28" fill="white" />undefined</mask><g mask="url(#7078d)"><path d="M 850,225 L 940,224.99999999999997 Q 940,224.99999999999997 950,225 Q 960,225 960,225 L 1050,225" fill="none" stroke="#9A9A9A" stroke-width="2" stroke-linecap="round" stroke-linejoin="round"/></g>undefined</g><g id="bELnnadJcUx"><g transform="translate(879.9999999999998 380)"><rect x="0" y="0" width="249.99999999999974" height="99.9999999999999" fill="rgba(255,255,255,0.01)" stroke="rgba(255,255,255,0.01)"/></g><g transform="translate(889.9999999999998, 390) rotate(0, 0, 0)" width="12.38" height="18.4"><text text-decoration="none" x="0" fill="#4b4b4b" font-size="10pt" font-family="lt_regular"  y="17">M</text><text text-decoration="none" x="12" fill="#4b4b4b" font-size="10pt" font-family="noto_regular"  y="17"></text></g></g><g id="7uRmWjIbw7x"><g transform="translate(950 140)"><ellipse cx="50" cy="25" rx="50" ry="25" fill="rgb(97,159,67)" stroke="#619f43" stroke-width="2" stroke-linecap="round" stroke-linejoin="round" stroke-dasharray="0 0"/></g><g transform="translate(988.185, 155.8) rotate(0, 11.815, 9.2)" width="23.63" height="18.4"><text text-decoration="none" x="0.3149999999999995" fill="#ffffff" font-size="10pt" font-family="lt_regular"  y="17">Day</text><text text-decoration="none" x="23.314999999999998" fill="#4b4b4b" font-size="10pt" font-family="noto_regular"  y="17"></text></g></g><g id="iyPPxvGJlsl"><g transform="translate(990 70)"><ellipse cx="49.99999999999997" cy="24.999999999999986" rx="49.99999999999997" ry="24.999999999999986" fill="rgb(97,159,67)" stroke="#619f43" stroke-width="2" stroke-linecap="round" stroke-linejoin="round" stroke-dasharray="0 0"/></g><g transform="translate(1001.625, 85.79999999999998) rotate(0, 38.375, 9.2)" width="76.75" height="18.4"><text text-decoration="none" x="0.875" fill="#ffffff" font-size="10pt" font-family="lt_regular"  y="17">TrainingType</text><text text-decoration="none" x="75.875" fill="#4b4b4b" font-size="10pt" font-family="noto_regular"  y="17"></text></g></g><g id="x1FxiPeMWYT"><g transform="translate(1070 20)"><ellipse cx="49.99999999999997" cy="24.999999999999986" rx="49.99999999999997" ry="24.999999999999986" fill="rgb(97,159,67)" stroke="#619f43" stroke-width="2" stroke-linecap="round" stroke-linejoin="round" stroke-dasharray="0 0"/></g><g transform="translate(1091.855, 35.79999999999998) rotate(0, 28.145, 9.2)" width="56.29" height="18.4"><text text-decoration="none" x="0.14499999999999957" fill="#ffffff" font-size="10pt" font-family="lt_regular"  y="17">Exercise1</text><text text-decoration="none" x="56.144999999999996" fill="#4b4b4b" font-size="10pt" font-family="noto_regular"  y="17"></text></g></g><g id="erKWX63Ntsd"><g transform="translate(1180 50)"><ellipse cx="49.99999999999997" cy="24.999999999999986" rx="49.99999999999997" ry="24.999999999999986" fill="rgb(97,159,67)" stroke="#619f43" stroke-width="2" stroke-linecap="round" stroke-linejoin="round" stroke-dasharray="0 0"/></g><g transform="translate(1201.855, 65.79999999999998) rotate(0, 28.145, 9.2)" width="56.29" height="18.4"><text text-decoration="none" x="0.14499999999999957" fill="#ffffff" font-size="10pt" font-family="lt_regular"  y="17">Exercise2</text><text text-decoration="none" x="56.144999999999996" fill="#4b4b4b" font-size="10pt" font-family="noto_regular"  y="17"></text></g></g><g id="xmp1wDwtVz9"><g transform="translate(1230 120)"><ellipse cx="49.99999999999997" cy="24.999999999999986" rx="49.99999999999997" ry="24.999999999999986" fill="rgb(97,159,67)" stroke="#619f43" stroke-width="2" stroke-linecap="round" stroke-linejoin="round" stroke-dasharray="0 0"/></g><g transform="translate(1251.855, 135.8) rotate(0, 28.145, 9.2)" width="56.29" height="18.4"><text text-decoration="none" x="0.14499999999999957" fill="#ffffff" font-size="10pt" font-family="lt_regular"  y="17">Exercise3</text><text text-decoration="none" x="56.144999999999996" fill="#4b4b4b" font-size="10pt" font-family="noto_regular"  y="17"></text></g></g><g id="QrhxtsVKLC1"><g transform="translate(1230 189.99999999999994)"><ellipse cx="49.99999999999997" cy="24.999999999999986" rx="49.99999999999997" ry="24.999999999999986" fill="rgb(97,159,67)" stroke="#619f43" stroke-width="2" stroke-linecap="round" stroke-linejoin="round" stroke-dasharray="0 0"/></g><g transform="translate(1251.855, 205.79999999999995) rotate(0, 28.145, 9.2)" width="56.29" height="18.4"><text text-decoration="none" x="0.14499999999999957" fill="#ffffff" font-size="10pt" font-family="lt_regular"  y="17">Exercise4</text><text text-decoration="none" x="56.144999999999996" fill="#4b4b4b" font-size="10pt" font-family="noto_regular"  y="17"></text></g></g><g id="2ChshD5UAiT"><g transform="translate(1230 260)"><ellipse cx="49.99999999999997" cy="24.999999999999986" rx="49.99999999999997" ry="24.999999999999986" fill="rgb(97,159,67)" stroke="#619f43" stroke-width="2" stroke-linecap="round" stroke-linejoin="round" stroke-dasharray="0 0"/></g><g transform="translate(1251.855, 275.8) rotate(0, 28.145, 9.2)" width="56.29" height="18.4"><text text-decoration="none" x="0.14499999999999957" fill="#ffffff" font-size="10pt" font-family="lt_regular"  y="17">Exercise5</text><text text-decoration="none" x="56.144999999999996" fill="#4b4b4b" font-size="10pt" font-family="noto_regular"  y="17"></text></g></g><g id="JvVtMkxQwHS"><g transform="translate(1140 320)"><ellipse cx="49.99999999999997" cy="24.999999999999986" rx="49.99999999999997" ry="24.999999999999986" fill="rgb(52,161,108)" stroke="#34a16c" stroke-width="2" stroke-linecap="round" stroke-linejoin="round" stroke-dasharray="0 0"/></g><g transform="translate(1170.465, 335.8) rotate(0, 19.535, 9.2)" width="39.07" height="18.4"><text text-decoration="underline" x="0.5350000000000001" fill="#ffffff" font-size="10pt" font-family="lt_regular"  y="17">PlanID</text><text text-decoration="none" x="38.535" fill="#4b4b4b" font-size="10pt" font-family="noto_regular"  y="17"></text></g></g><g id="XWZKBtxx9IG"><g><path d="M 1120,70 L 1110,135 L 1100,200" fill="none" stroke="#9A9A9A" stroke-width="2" stroke-linecap="round" stroke-linejoin="round"/></g></g><g id="h5cb05VPxaC"><g><path d="M 1060,118 L 1080,159 L 1100,200" fill="none" stroke="#9A9A9A" stroke-width="2" stroke-linecap="round" stroke-linejoin="round"/></g></g><g id="PB1x8d0IcLB"><g><path d="M 1050,165 L 1100,200" fill="none" stroke="#9A9A9A" stroke-width="2" stroke-linecap="round" stroke-linejoin="round"/></g></g><g id="aLO1qrkLyeY"><g><path d="M 1190,90 L 1100,200" fill="none" stroke="#9A9A9A" stroke-width="2" stroke-linecap="round" stroke-linejoin="round"/></g></g><g id="ZMG5RbKCH56"><g><path d="M 1230,145 L 1100,200" fill="none" stroke="#9A9A9A" stroke-width="2" stroke-linecap="round" stroke-linejoin="round"/></g></g><g id="w5RLLcyILnp"><g><path d="M 1230,215 L 1151,226" fill="none" stroke="#7E7E7E" stroke-width="2" stroke-linecap="round" stroke-linejoin="round"/></g></g><g id="nNq7ZJl09Yh"><g><path d="M 1240,270 L 1150,225" fill="none" stroke="#7E7E7E" stroke-width="2" stroke-linecap="round" stroke-linejoin="round"/></g></g><g id="DH8ckJORs7l"><g><path d="M 1190,320 L 1150,225" fill="none" stroke="#9A9A9A" stroke-width="2" stroke-linecap="round" stroke-linejoin="round"/></g></g><g id="zstp8lCdcvn"><mask id="5dc9e" x="1086" y="236" width="28" height="128" maskUnits="userSpaceOnUse"><rect x="1086" y="236" width="28" height="128" fill="white" />undefined</mask><g mask="url(#5dc9e)"><path d="M 1100,250 L 1100,350" fill="none" stroke="#9A9A9A" stroke-width="2" stroke-linecap="round" stroke-linejoin="round"/></g>undefined</g><g id="gfV8JtqggBD"><mask id="fcf5d" x="1086" y="406" width="28" height="158" maskUnits="userSpaceOnUse"><rect x="1086" y="406" width="28" height="158" fill="white" />undefined</mask><g mask="url(#fcf5d)"><path d="M 1100,420 L 1100,550" fill="none" stroke="#9A9A9A" stroke-width="2" stroke-linecap="round" stroke-linejoin="round"/></g>undefined</g><g id="m1RHhoG2mGA"><g transform="translate(1050 270)"><rect x="0" y="0" width="250" height="100" fill="rgba(255,255,255,0.01)" stroke="rgba(255,255,255,0.01)"/></g><g transform="translate(1060, 280) rotate(0, 0, 0)" width="12.38" height="18.4"><text text-decoration="none" x="0" fill="#4b4b4b" font-size="10pt" font-family="lt_regular"  y="17">M</text><text text-decoration="none" x="12" fill="#4b4b4b" font-size="10pt" font-family="noto_regular"  y="17"></text></g></g><g id="dnDr9GSka3d"><g transform="translate(1060 510)"><rect x="0" y="0" width="250" height="100" fill="rgba(255,255,255,0.01)" stroke="rgba(255,255,255,0.01)"/></g><g transform="translate(1070, 520) rotate(0, 0, 0)" width="7.73" height="18.4"><text text-decoration="none" x="0" fill="#4b4b4b" font-size="10pt" font-family="lt_regular"  y="17">1</text><text text-decoration="none" x="8" fill="#4b4b4b" font-size="10pt" font-family="noto_regular"  y="17"></text></g></g><g id="gvhwmLhdgdw"><g transform="translate(1220 540)"><ellipse cx="50" cy="25" rx="50" ry="25" fill="rgb(97,159,67)" stroke="#619f43" stroke-width="2" stroke-linecap="round" stroke-linejoin="round" stroke-dasharray="0 0"/></g><g transform="translate(1236.115, 555.8) rotate(0, 33.885, 9.2)" width="67.77" height="18.4"><text text-decoration="none" x="0.884999999999998" fill="#ffffff" font-size="10pt" font-family="lt_regular"  y="17">Description</text><text text-decoration="none" x="66.88499999999999" fill="#4b4b4b" font-size="10pt" font-family="noto_regular"  y="17"></text></g></g><g id="t7jO1bm3tYO"><g transform="translate(1260 600)"><ellipse cx="50" cy="25" rx="50" ry="25" fill="rgb(97,159,67)" stroke="#619f43" stroke-width="2" stroke-linecap="round" stroke-linejoin="round" stroke-dasharray="0 0"/></g><g transform="translate(1271.625, 615.8) rotate(0, 38.375, 9.2)" width="76.75" height="18.4"><text text-decoration="none" x="0.875" fill="#ffffff" font-size="10pt" font-family="lt_regular"  y="17">TrainingType</text><text text-decoration="none" x="75.875" fill="#4b4b4b" font-size="10pt" font-family="noto_regular"  y="17"></text></g></g><g id="hSbzPL36dMr"><g transform="translate(1220 670)"><ellipse cx="49.99999999999997" cy="24.999999999999986" rx="49.99999999999997" ry="24.999999999999986" fill="rgb(52,161,108)" stroke="#34a16c" stroke-width="2" stroke-linecap="round" stroke-linejoin="round" stroke-dasharray="0 0"/></g><g transform="translate(1249.34, 685.8) rotate(0, 20.66, 9.2)" width="41.32" height="18.4"><text text-decoration="underline" x="0" fill="#ffffff" font-size="10pt" font-family="lt_regular"  y="17">UserID</text><text text-decoration="none" x="42" fill="#4b4b4b" font-size="10pt" font-family="noto_regular"  y="17"></text></g></g><g id="qjVga0aUhx1"><g transform="translate(1100 700)"><ellipse cx="49.99999999999997" cy="24.999999999999986" rx="49.99999999999997" ry="24.999999999999986" fill="rgb(97,159,67)" stroke="#619f43" stroke-width="2" stroke-linecap="round" stroke-linejoin="round" stroke-dasharray="0 0"/></g><g transform="translate(1121.76, 715.8) rotate(0, 28.24, 9.2)" width="56.48" height="18.4"><text text-decoration="none" x="0.7399999999999984" fill="#ffffff" font-size="10pt" font-family="lt_regular"  y="17">Password</text><text text-decoration="none" x="55.739999999999995" fill="#4b4b4b" font-size="10pt" font-family="noto_regular"  y="17"></text></g></g><g id="M67cu6AtdkK"><g transform="translate(980 670)"><ellipse cx="49.99999999999997" cy="24.999999999999986" rx="49.99999999999997" ry="24.999999999999986" fill="rgb(97,159,67)" stroke="#619f43" stroke-width="2" stroke-linecap="round" stroke-linejoin="round" stroke-dasharray="0 0"/></g><g transform="translate(1000.245, 685.8) rotate(0, 29.755, 9.2)" width="59.51" height="18.4"><text text-decoration="none" x="0.254999999999999" fill="#ffffff" font-size="10pt" font-family="lt_regular"  y="17">Username</text><text text-decoration="none" x="59.254999999999995" fill="#4b4b4b" font-size="10pt" font-family="noto_regular"  y="17"></text></g></g><g id="HodeZXryAld"><g><path d="M 1220,565 L 1185,570 L 1150,575" fill="none" stroke="#9A9A9A" stroke-width="2" stroke-linecap="round" stroke-linejoin="round"/></g></g><g id="f9gNdtbnvga"><g><path d="M 1260,625 L 1205,600 L 1150,575" fill="none" stroke="#9A9A9A" stroke-width="2" stroke-linecap="round" stroke-linejoin="round"/></g></g><g id="vRcJwzkeVPf"><g><path d="M 1250,672 L 1100,600" fill="none" stroke="#9A9A9A" stroke-width="2" stroke-linecap="round" stroke-linejoin="round"/></g></g><g id="MCgGJ0TjOe3"><g><path d="M 1150,700 L 1100,600" fill="none" stroke="#9A9A9A" stroke-width="2" stroke-linecap="round" stroke-linejoin="round"/></g></g><g id="LeaugfYy1RF"><g><path d="M 1050,672 L 1075,636 L 1100,600" fill="none" stroke="#9A9A9A" stroke-width="2" stroke-linecap="round" stroke-linejoin="round"/></g></g><g id="pNcLY6RjWoA"><mask id="0f500" x="836" y="561" width="228" height="28" maskUnits="userSpaceOnUse"><rect x="836" y="561" width="228" height="28" fill="white" />undefined</mask><g mask="url(#0f500)"><path d="M 1050,575 L 850,575" fill="none" stroke="#9A9A9A" stroke-width="2" stroke-linecap="round" stroke-linejoin="round"/></g>undefined</g><g id="MxtPu250rk1"><g transform="translate(990 540)"><rect x="0" y="0" width="250" height="100" fill="rgba(255,255,255,0.01)" stroke="rgba(255,255,255,0.01)"/></g><g transform="translate(1000, 550) rotate(0, 0, 0)" width="7.73" height="18.4"><text text-decoration="none" x="0" fill="#4b4b4b" font-size="10pt" font-family="lt_regular"  y="17">1</text><text text-decoration="none" x="8" fill="#4b4b4b" font-size="10pt" font-family="noto_regular"  y="17"></text></g></g><g id="r08mXQAwpLH"><mask id="957e4" x="536" y="561" width="208" height="28" maskUnits="userSpaceOnUse"><rect x="536" y="561" width="208" height="28" fill="white" />undefinedundefined</mask><g mask="url(#957e4)"><path d="M 730,575 L 550,575" fill="none" stroke="#9A9A9A" stroke-width="2" stroke-linecap="round" stroke-linejoin="round"/></g>undefinedundefined</g><g id="Zca074bgzzU"><g transform="translate(560 540)"><rect x="0" y="0" width="249.99999999999986" height="99.99999999999994" fill="rgba(255,255,255,0.01)" stroke="rgba(255,255,255,0.01)"/></g><g transform="translate(570, 550) rotate(0, 0, 0)" width="12.38" height="18.4"><text text-decoration="none" x="0" fill="rgb(75, 75, 75)" font-size="10pt" font-family="lt_regular"  y="17">M</text><text text-decoration="none" x="12" fill="#4b4b4b" font-size="10pt" font-family="noto_regular"  y="17"></text></g></g><g id="ZRCdIcjJAEF"><g transform="translate(540 480)"><ellipse cx="49.99999999999997" cy="24.999999999999986" rx="49.99999999999997" ry="24.999999999999986" fill="rgb(97,159,67)" stroke="#619f43" stroke-width="2" stroke-linecap="round" stroke-linejoin="round" stroke-dasharray="0 0"/></g><g transform="translate(576.695, 495.8) rotate(0, 13.305, 9.2)" width="26.61" height="18.4"><text text-decoration="none" x="0.3049999999999997" fill="#ffffff" font-size="10pt" font-family="lt_regular"  y="17">Hips</text><text text-decoration="none" x="26.305" fill="#4b4b4b" font-size="10pt" font-family="noto_regular"  y="17"></text></g></g><g id="9rgm7R9aZSD"><g transform="translate(470 420)"><ellipse cx="49.99999999999997" cy="24.999999999999986" rx="49.99999999999997" ry="24.999999999999986" fill="rgb(97,159,67)" stroke="#619f43" stroke-width="2" stroke-linecap="round" stroke-linejoin="round" stroke-dasharray="0 0"/></g><g transform="translate(503.565, 435.8) rotate(0, 16.435, 9.2)" width="32.87" height="18.4"><text text-decoration="none" x="0.4349999999999987" fill="#ffffff" font-size="10pt" font-family="lt_regular"  y="17">Thigh</text><text text-decoration="none" x="32.435" fill="#4b4b4b" font-size="10pt" font-family="noto_regular"  y="17"></text></g></g><g id="AvSi6BbAS8p"><g transform="translate(350 420)"><ellipse cx="49.99999999999997" cy="24.999999999999986" rx="49.99999999999997" ry="24.999999999999986" fill="rgb(97,159,67)" stroke="#619f43" stroke-width="2" stroke-linecap="round" stroke-linejoin="round" stroke-dasharray="0 0"/></g><g transform="translate(385.71, 435.8) rotate(0, 14.29, 9.2)" width="28.58" height="18.4"><text text-decoration="none" x="0.28999999999999915" fill="#ffffff" font-size="10pt" font-family="lt_regular"  y="17">Date</text><text text-decoration="none" x="28.29" fill="#4b4b4b" font-size="10pt" font-family="noto_regular"  y="17"></text></g></g><g id="Iwn98hhjHmo"><g transform="translate(520 630)"><ellipse cx="49.99999999999997" cy="24.999999999999986" rx="49.99999999999997" ry="24.999999999999986" fill="rgb(97,159,67)" stroke="#619f43" stroke-width="2" stroke-linecap="round" stroke-linejoin="round" stroke-dasharray="0 0"/></g><g transform="translate(552.915, 645.8) rotate(0, 17.085, 9.2)" width="34.17" height="18.4"><text text-decoration="none" x="0.5850000000000009" fill="#ffffff" font-size="10pt" font-family="lt_regular"  y="17">Waist</text><text text-decoration="none" x="33.585" fill="#4b4b4b" font-size="10pt" font-family="noto_regular"  y="17"></text></g></g><g id="Rel9EjuI1RW"><g transform="translate(270 530)"><ellipse cx="50" cy="25" rx="50" ry="25" fill="rgb(97,159,67)" stroke="#619f43" stroke-width="2" stroke-linecap="round" stroke-linejoin="round" stroke-dasharray="0 0"/></g><g transform="translate(298.415, 545.8) rotate(0, 21.585, 9.2)" width="43.17" height="18.4"><text text-decoration="none" x="0.5850000000000009" fill="#ffffff" font-size="10pt" font-family="lt_regular"  y="17">Weight</text><text text-decoration="none" x="42.585" fill="#4b4b4b" font-size="10pt" font-family="noto_regular"  y="17"></text></g></g><g id="xteEMqd5nSI"><g transform="translate(289.9999999999999 600)"><ellipse cx="49.99999999999997" cy="24.999999999999986" rx="49.99999999999997" ry="24.999999999999986" fill="rgb(97,159,67)" stroke="#619f43" stroke-width="2" stroke-linecap="round" stroke-linejoin="round" stroke-dasharray="0 0"/></g><g transform="translate(323.0399999999999, 615.8) rotate(0, 16.96, 9.2)" width="33.92" height="18.4"><text text-decoration="none" x="0" fill="#ffffff" font-size="10pt" font-family="lt_regular"  y="17">Chest</text><text text-decoration="none" x="34" fill="#4b4b4b" font-size="10pt" font-family="noto_regular"  y="17"></text></g></g><g id="ae4BoU6He2R"><g transform="translate(400 640)"><ellipse cx="49.99999999999997" cy="24.999999999999986" rx="49.99999999999997" ry="24.999999999999986" fill="rgb(97,159,67)" stroke="#619f43" stroke-width="2" stroke-linecap="round" stroke-linejoin="round" stroke-dasharray="0 0"/></g><g transform="translate(433.66, 655.8) rotate(0, 16.34, 9.2)" width="32.68" height="18.4"><text text-decoration="none" x="0.8399999999999999" fill="#ffffff" font-size="10pt" font-family="lt_regular"  y="17">Bicep</text><text text-decoration="none" x="31.84" fill="#4b4b4b" font-size="10pt" font-family="noto_regular"  y="17"></text></g></g><g id="pE5zCWR1d7W"><g transform="translate(280 460)"><ellipse cx="50" cy="25" rx="50" ry="25" fill="rgb(52,161,108)" stroke="#34a16c" stroke-width="2" stroke-linecap="round" stroke-linejoin="round" stroke-dasharray="0 0"/></g><g transform="translate(298.06, 475.8) rotate(0, 31.94, 9.2)" width="63.88" height="18.4"><text text-decoration="underline" x="0.4400000000000013" fill="#ffffff" font-size="10pt" font-family="lt_regular"  y="17">TrackingID</text><text text-decoration="none" x="63.44" fill="#4b4b4b" font-size="10pt" font-family="noto_regular"  y="17"></text></g></g><g id="LYt1Oh5W8on"><g><path d="M 540,505 L 500,550" fill="none" stroke="#7E7E7E" stroke-width="2" stroke-linecap="round" stroke-linejoin="round"/></g></g><g id="q8KuEjZWCF2"><g><path d="M 570,630 L 500,600" fill="none" stroke="#7E7E7E" stroke-width="2" stroke-linecap="round" stroke-linejoin="round"/></g></g><g id="GLcbD4pFE0q"><g><path d="M 450,640 L 475,620 L 500,600" fill="none" stroke="#9A9A9A" stroke-width="2" stroke-linecap="round" stroke-linejoin="round"/></g></g><g id="UDbti8apfNQ"><g><path d="M 500,468 L 500,550" fill="none" stroke="#7E7E7E" stroke-width="2" stroke-linecap="round" stroke-linejoin="round"/></g></g><g id="J5WYDWgpwiq"><g><path d="M 420,468 L 460,509 L 500,550" fill="none" stroke="#9A9A9A" stroke-width="2" stroke-linecap="round" stroke-linejoin="round"/></g></g><g id="quqrQXY6w55"><g><path d="M 370,500 L 500,550" fill="none" stroke="#9A9A9A" stroke-width="2" stroke-linecap="round" stroke-linejoin="round"/></g></g><g id="V3xQMuOsJAi"><g><path d="M 370,555 L 410,565 L 450,575" fill="none" stroke="#9A9A9A" stroke-width="2" stroke-linecap="round" stroke-linejoin="round"/></g></g><g id="nSp4dGSeBdy"><g><path d="M 380,610 L 415,593 L 450,575" fill="none" stroke="#9A9A9A" stroke-width="2" stroke-linecap="round" stroke-linejoin="round"/></g></g></svg>